<?xml version="1.0" encoding="UTF-8" standalone="no"?>
<!-- Created with Inkscape (http://www.inkscape.org/) -->

<svg
   xmlns:dc="http://purl.org/dc/elements/1.1/"
   xmlns:cc="http://creativecommons.org/ns#"
   xmlns:rdf="http://www.w3.org/1999/02/22-rdf-syntax-ns#"
   xmlns:svg="http://www.w3.org/2000/svg"
   xmlns="http://www.w3.org/2000/svg"
   xmlns:sodipodi="http://sodipodi.sourceforge.net/DTD/sodipodi-0.dtd"
   xmlns:inkscape="http://www.inkscape.org/namespaces/inkscape"
   width="256"
   height="256"
   viewBox="0 0 67.733333 67.733331"
   version="1.1"
   id="svg3752"
   inkscape:version="0.92.4 (5da689c313, 2019-01-14)"
   sodipodi:docname="logo.svg">
  <defs
     id="defs3746" />
  <sodipodi:namedview
     id="base"
     pagecolor="#ffffff"
     bordercolor="#666666"
     borderopacity="1.0"
     inkscape:pageopacity="0.0"
     inkscape:pageshadow="2"
     inkscape:zoom="0.7"
     inkscape:cx="169.18352"
     inkscape:cy="93.428869"
     inkscape:document-units="mm"
     inkscape:current-layer="layer1"
     showgrid="false"
     inkscape:window-width="1395"
     inkscape:window-height="1375"
     inkscape:window-x="1907"
     inkscape:window-y="364"
     inkscape:window-maximized="0"
     fit-margin-top="0"
     fit-margin-left="0"
     fit-margin-right="0"
     fit-margin-bottom="0"
     units="px" />
  <metadata
     id="metadata3749">
    <rdf:RDF>
      <cc:Work
         rdf:about="">
        <dc:format>image/svg+xml</dc:format>
        <dc:type
           rdf:resource="http://purl.org/dc/dcmitype/StillImage" />
        <dc:title></dc:title>
      </cc:Work>
    </rdf:RDF>
  </metadata>
  <g
     inkscape:label="Layer 1"
     inkscape:groupmode="layer"
     id="layer1"
     transform="translate(-63.348793,-128.42261)">
    <rect
       style="fill:#6f8a91;stroke-width:0.18021317"
       id="rect3781"
       width="68.40802"
       height="68.035706"
       x="63.348793"
       y="128.49821" />
    <path
       style="fill:#000000;stroke-width:0.09162107"
       d="m 88.17999,180.93262 c -0.434409,-0.21808 -0.779768,-0.74227 -0.779768,-1.18358 0,-0.7068 0.714136,-1.3582 1.493681,-1.36249 1.020039,-0.006 2.025934,-0.43975 2.816252,-1.21551 0.308522,-0.30283 0.656012,-0.74469 0.772206,-0.9819 0.484087,-0.9883 0.469628,-0.63168 0.470807,-11.61151 l 6.86e-4,-10.22909 -0.393412,-0.17495 c -0.527532,-0.23458 -1.461104,-0.23528 -1.986814,-10e-4 l -0.390017,0.17345 -0.02653,7.8728 -0.02653,7.87279 -0.292849,0.8206 c -0.161066,0.45133 -0.44939,1.08385 -0.640731,1.40561 -0.461901,0.77675 -1.505233,1.82189 -2.306274,2.31028 -0.835808,0.50959 -2.106518,0.92492 -3.070873,1.00371 -0.658707,0.0538 -0.803969,0.0373 -1.161291,-0.13217 -0.466597,-0.22135 -0.812771,-0.72869 -0.812771,-1.19127 0,-0.7068 0.714143,-1.3582 1.493684,-1.36249 1.020039,-0.006 2.025934,-0.43974 2.81626,-1.21551 0.308514,-0.30283 0.656011,-0.74469 0.772198,-0.9819 0.472795,-0.96524 0.469635,-0.91078 0.470807,-8.11572 l 6.86e-4,-6.73332 h -0.723731 c -2.079362,0 -3.907908,-1.33063 -4.610855,-3.35532 -0.241173,-0.6946 -0.24314,-4.15375 -0.0027,-5.4171 1.204174,-6.33749 6.021651,-11.05555 12.494406,-12.23656 1.179479,-0.21521 3.948398,-0.21479 5.130277,6.7e-4 6.492096,1.18411 11.368436,5.98423 12.496766,12.30143 0.11102,0.62158 0.15534,1.41999 0.1586,2.85764 0.003,1.71864 -0.0195,2.06415 -0.16861,2.49382 -0.54811,1.57866 -1.78251,2.74971 -3.38433,3.21065 -0.27654,0.0796 -0.82848,0.14467 -1.22653,0.14467 h -0.72374 l 0.002,6.73332 c 10e-4,4.20959 0.0373,6.88247 0.0959,7.13125 0.41289,1.75456 2.18513,3.17829 3.9622,3.18302 0.76927,0.002 1.49367,0.66228 1.49367,1.36134 0,0.44496 -0.35879,0.97592 -0.80128,1.18577 -0.37018,0.17554 -0.50905,0.19184 -1.17277,0.13761 -0.90372,-0.0738 -2.118,-0.4551 -2.92487,-0.91838 -1.19213,-0.68447 -2.39547,-2.03332 -2.88921,-3.23854 -0.51383,-1.25424 -0.48641,-0.76556 -0.51926,-9.25608 l -0.0305,-7.87279 -0.39002,-0.17345 c -0.5257,-0.2338 -1.45927,-0.2331 -1.98681,0.001 l -0.39341,0.17494 0.002,10.2291 c 10e-4,6.56712 0.0358,10.37156 0.0959,10.62704 0.4129,1.75456 2.18513,3.17829 3.96219,3.18302 0.76928,0.002 1.49368,0.66228 1.49368,1.36134 0,0.44495 -0.3588,0.97591 -0.80129,1.18575 -0.37017,0.17556 -0.50904,0.19185 -1.17277,0.13762 -0.90371,-0.0738 -2.11798,-0.45509 -2.92487,-0.91838 -1.19212,-0.68447 -2.395472,-2.03331 -2.889212,-3.23854 -0.519662,-1.26852 -0.487727,-0.58299 -0.519299,-11.14741 l -0.02914,-9.76413 -0.297456,0.0836 c -0.384348,0.10799 -1.786671,0.10799 -2.171018,0 l -0.29747,-0.0836 -0.02591,9.76413 -0.02592,9.76414 -0.292842,0.8206 c -0.395783,1.10906 -0.861722,1.8618 -1.643835,2.65572 -1.181556,1.1994 -2.786641,1.94873 -4.412925,2.06017 -0.673954,0.0462 -0.828588,0.0279 -1.15542,-0.13609 z M 98.109504,153.274 c 0.21341,-0.0949 0.660852,-0.39932 0.994302,-0.67644 1.093084,-0.90842 2.212574,-1.32342 3.570044,-1.32342 1.34939,0 2.40934,0.38953 3.54563,1.30301 0.34636,0.27846 0.78375,0.54649 0.97195,0.59563 0.81658,0.21321 1.90487,-0.3991 2.28144,-1.28362 0.19431,-0.45639 0.1939,-2.74912 -6.9e-4,-4.04939 -0.36819,-2.46041 -1.52667,-4.76864 -3.31486,-6.60492 -1.48646,-1.52643 -3.117,-2.54766 -5.08876,-3.18718 -3.735539,-1.21159 -7.650803,-0.68356 -10.983756,1.48132 -0.918393,0.59653 -2.703188,2.35323 -3.31838,3.26615 -0.908439,1.34807 -1.53384,2.79374 -1.883064,4.35285 -0.234664,1.04765 -0.34542,4.09667 -0.167963,4.62345 0.256911,0.76259 1.164527,1.428 1.947791,1.428 0.515569,0 0.70449,-0.0897 1.4247,-0.67604 1.043277,-0.84944 2.156404,-1.24926 3.477992,-1.24926 1.357465,0 2.476969,0.415 3.570043,1.32342 0.800534,0.6653 1.229842,0.84902 1.984003,0.84902 0.393836,0 0.735732,-0.0596 0.989702,-0.17258 z"
       id="path3744"
       inkscape:connector-curvature="0" />
    <flowRoot
       xml:space="preserve"
       id="flowRoot3734"
       style="font-style:normal;font-weight:normal;font-size:40px;line-height:1.25;font-family:sans-serif;letter-spacing:0px;word-spacing:0px;fill:#000000;fill-opacity:1;stroke:none"
       transform="matrix(0.37529602,0,0,0.36766164,-31.152109,40.480032)"><flowRegion
         id="flowRegion3736"><rect
           id="rect3738"
           width="95.964493"
           height="53.538086"
           x="294.96454"
           y="375.75128" /></flowRegion><flowPara
         id="flowPara3740"
         style="font-style:normal;font-variant:normal;font-weight:normal;font-stretch:normal;font-family:'Sitka Text';-inkscape-font-specification:'Sitka Text'">PoCo</flowPara></flowRoot>  </g>
</svg>
