<?xml version="1.0" encoding="UTF-8" standalone="no"?>
<!-- Created with Inkscape (http://www.inkscape.org/) -->

<svg
   xmlns:dc="http://purl.org/dc/elements/1.1/"
   xmlns:cc="http://creativecommons.org/ns#"
   xmlns:rdf="http://www.w3.org/1999/02/22-rdf-syntax-ns#"
   xmlns:svg="http://www.w3.org/2000/svg"
   xmlns="http://www.w3.org/2000/svg"
   xmlns:sodipodi="http://sodipodi.sourceforge.net/DTD/sodipodi-0.dtd"
   xmlns:inkscape="http://www.inkscape.org/namespaces/inkscape"
   width="1200"
   height="600"
   viewBox="0 0 317.5 158.75"
   version="1.1"
   id="svg8"
   inkscape:version="0.92.4 (5da689c313, 2019-01-14)"
   sodipodi:docname="splash.svg">
  <defs
     id="defs2" />
  <sodipodi:namedview
     id="base"
     pagecolor="#ffffff"
     bordercolor="#666666"
     borderopacity="1.0"
     inkscape:pageopacity="0.0"
     inkscape:pageshadow="2"
     inkscape:zoom="0.7"
     inkscape:cx="929.45192"
     inkscape:cy="159.10349"
     inkscape:document-units="mm"
     inkscape:current-layer="layer1"
     showgrid="false"
     fit-margin-top="0"
     fit-margin-left="0"
     fit-margin-right="0"
     fit-margin-bottom="0"
     inkscape:window-width="2254"
     inkscape:window-height="1448"
     inkscape:window-x="1174"
     inkscape:window-y="263"
     inkscape:window-maximized="0"
     units="px" />
  <metadata
     id="metadata5">
    <rdf:RDF>
      <cc:Work
         rdf:about="">
        <dc:format>image/svg+xml</dc:format>
        <dc:type
           rdf:resource="http://purl.org/dc/dcmitype/StillImage" />
        <dc:title></dc:title>
      </cc:Work>
    </rdf:RDF>
  </metadata>
  <g
     inkscape:label="Layer 1"
     inkscape:groupmode="layer"
     id="layer1"
     transform="translate(-4.646421,-15.634532)">
    <rect
       id="rect3721"
       width="317.6207"
       height="158.21681"
       x="5.0950031"
       y="16.146223"
       style="fill:#6f8a91;stroke-width:0.36782652" />
    <flowRoot
       xml:space="preserve"
       id="flowRoot3713"
       style="font-style:normal;font-weight:normal;font-size:133.33332825px;line-height:1.25;font-family:sans-serif;letter-spacing:0px;word-spacing:0px;fill:#000000;fill-opacity:1;stroke:none"
       transform="matrix(0.54740737,0,0,0.54740737,13.397177,-109.86423)"><flowRegion
         id="flowRegion3715"
         style="font-size:133.33332825px"><rect
           id="rect3717"
           width="657.14288"
           height="458.57144"
           x="62.857143"
           y="292.51968"
           style="font-size:133.33332825px" /></flowRegion><flowPara
         id="flowPara3719"
         style="font-style:normal;font-variant:normal;font-weight:normal;font-stretch:normal;font-size:133.33332825px;font-family:'Sitka Text';-inkscape-font-specification:'Sitka Text'">PoCo</flowPara></flowRoot>    <path
       style="fill:#000000;stroke-width:0.13501899"
       d="m 236.7713,128.95802 c -0.63363,-0.32469 -1.13737,-1.10516 -1.13737,-1.76222 0,-1.05234 1.04164,-2.02221 2.17869,-2.02859 1.48783,-0.009 2.95503,-0.65474 4.10779,-1.80976 0.45001,-0.45089 0.95686,-1.10876 1.12634,-1.46194 0.70609,-1.47148 0.685,-0.94051 0.68672,-17.28827 l 10e-4,-15.230005 -0.57383,-0.260472 c -0.76946,-0.349275 -2.13117,-0.350314 -2.89797,-0.0022 l -0.56888,0.258256 -0.0387,11.721721 -0.0387,11.72175 -0.42715,1.22179 c -0.23493,0.67198 -0.65548,1.61373 -0.93457,2.09279 -0.67373,1.15649 -2.19554,2.71259 -3.36394,3.43975 -1.21911,0.75872 -3.07257,1.37711 -4.47918,1.49441 -0.96079,0.0801 -1.17267,0.0555 -1.69386,-0.19679 -0.68058,-0.32946 -1.18551,-1.08484 -1.18551,-1.77357 0,-1.05234 1.04165,-2.02221 2.17869,-2.02858 1.48783,-0.009 2.95503,-0.65474 4.1078,-1.80977 0.45,-0.45089 0.95686,-1.10876 1.12633,-1.46194 0.68962,-1.43714 0.68501,-1.35605 0.68672,-12.08344 l 0.001,-10.025165 h -1.05564 c -3.03296,0 -5.70008,-1.981166 -6.7254,-4.995703 -0.35177,-1.034193 -0.35464,-6.18448 -0.004,-8.065463 1.75641,-9.435814 8.78319,-16.460488 18.22436,-18.218885 1.72039,-0.32042 5.75914,-0.319795 7.48303,0.0012 9.46937,1.763005 16.58202,8.909853 18.22781,18.315465 0.16193,0.925462 0.22657,2.114208 0.23133,4.254703 0.005,2.558867 -0.0284,3.073305 -0.24595,3.713022 -0.79946,2.350459 -2.59995,4.094016 -4.9364,4.780295 -0.40335,0.118474 -1.2084,0.215407 -1.789,0.215407 h -1.05565 l 0.003,10.025164 c 0.002,6.26765 0.0544,10.24727 0.13988,10.61769 0.60225,2.61234 3.18724,4.73211 5.77927,4.73916 1.12206,0.003 2.17868,0.98605 2.17868,2.02688 0,0.6625 -0.52335,1.45303 -1.16876,1.76547 -0.53994,0.26137 -0.74249,0.28563 -1.7106,0.20489 -1.31817,-0.10993 -3.08931,-0.67759 -4.26622,-1.36736 -1.73884,-1.0191 -3.49404,-3.02739 -4.21421,-4.82183 -0.74946,-1.86743 -0.70946,-1.13984 -0.75739,-13.7813 l -0.0445,-11.721719 -0.56888,-0.258256 c -0.76679,-0.348099 -2.12849,-0.34706 -2.89796,0.0022 l -0.57384,0.260472 0.003,15.230013 c 0.002,9.77773 0.0522,15.44213 0.13989,15.82251 0.60225,2.61234 3.18724,4.73211 5.77926,4.73915 1.12207,0.003 2.17868,0.98606 2.17868,2.02689 0,0.66248 -0.52335,1.45302 -1.16876,1.76546 -0.53993,0.26138 -0.74249,0.28564 -1.7106,0.2049 -1.31816,-0.10993 -3.0893,-0.6776 -4.26622,-1.36737 -1.73884,-1.01911 -3.49404,-3.02738 -4.21421,-4.82183 -0.75798,-1.88869 -0.7114,-0.86801 -0.75745,-16.59727 l -0.0425,-14.537741 -0.43387,0.124435 c -0.56061,0.16078 -2.60604,0.16078 -3.16665,0 l -0.43388,-0.124435 -0.0378,14.537741 -0.0378,14.53773 -0.42714,1.22179 c -0.57729,1.65125 -1.25691,2.77201 -2.3977,3.95407 -1.72343,1.78577 -4.0646,2.90145 -6.4367,3.06737 -0.98303,0.0688 -1.20858,0.0416 -1.6853,-0.20263 z m 14.48321,-41.180652 c 0.31128,-0.141322 0.96392,-0.594536 1.45029,-1.007143 1.59437,-1.352543 3.22726,-1.970434 5.20727,-1.970434 1.96821,0 3.51427,0.579974 5.17165,1.940053 0.50522,0.414583 1.14319,0.813651 1.4177,0.886817 1.19105,0.317437 2.77843,-0.594216 3.3277,-1.911155 0.28343,-0.679527 0.28283,-4.093142 -10e-4,-6.029108 -0.53713,-3.663261 -2.22691,-7.099974 -4.83516,-9.833984 -2.16816,-2.272677 -4.54647,-3.79319 -7.42246,-4.745361 -5.44867,-1.803922 -11.15948,-1.017745 -16.02093,2.20552 -1.33957,0.888166 -3.94288,3.503699 -4.8402,4.862944 -1.32505,2.007119 -2.23726,4.159559 -2.74664,6.48091 -0.34228,1.559821 -0.50383,6.099472 -0.24499,6.883793 0.37473,1.135409 1.69858,2.126129 2.84105,2.126129 0.75201,0 1.02757,-0.133471 2.07807,-1.006538 1.52173,-1.264724 3.14534,-1.86002 5.07301,-1.86002 1.98,0 3.61291,0.617891 5.20727,1.970434 1.16766,0.99056 1.79385,1.264092 2.89387,1.264092 0.57445,0 1.07314,-0.08877 1.44358,-0.256949 z"
       id="path3744"
       inkscape:connector-curvature="0" />
    <flowRoot
       xml:space="preserve"
       id="flowRoot3734"
       style="font-style:normal;font-weight:normal;font-size:40px;line-height:1.25;font-family:sans-serif;letter-spacing:0px;word-spacing:0px;fill:#000000;fill-opacity:1;stroke:none"
       transform="matrix(0.54740737,0,0,0.54740737,67.475822,-80.16033)"><flowRegion
         id="flowRegion3736"><rect
           id="rect3738"
           width="95.964493"
           height="53.538086"
           x="294.96454"
           y="375.75128" /></flowRegion><flowPara
         id="flowPara3740"
         style="font-style:normal;font-variant:normal;font-weight:normal;font-stretch:normal;font-family:'Sitka Text';-inkscape-font-specification:'Sitka Text'">v2.0</flowPara></flowRoot>  </g>
</svg>
